<svg xmlns="http://www.w3.org/2000/svg" viewBox="0 0 848 640" font-family="Manrope, -apple-system, sans-serif"><defs><linearGradient id="bg" x1="0" y1="0" x2="1" y2="1"><stop offset="0" stop-color="#F0F4FC"/><stop offset="1" stop-color="#CCDBF5"/></linearGradient><linearGradient id="bluev" x1="0" y1="0" x2="0" y2="1"><stop offset="0" stop-color="#058EF4"/><stop offset="1" stop-color="#0052CD"/></linearGradient><filter id="soft" x="-40%" y="-40%" width="180%" height="180%"><feDropShadow dx="0" dy="8" stdDeviation="14" flood-color="#0052CD" flood-opacity="0.18"/></filter></defs><rect width="848" height="640" fill="url(#bg)"/><circle cx="740" cy="90" r="160" fill="#AFC2E6" fill-opacity="0.35"/><g filter="url(#soft)"><rect x="120" y="140" width="450" height="360" rx="28" fill="#FFFFFF"/><g transform="translate(152,176)"><rect width="386" height="86" rx="20" fill="#F0F4FC"/><rect x="16" y="20" width="46" height="46" rx="12" fill="#FFFFFF"/><path d="M29 38 h20 M29 48 h13" stroke="#0052CD" stroke-width="4" stroke-linecap="round"/><rect x="80" y="20" width="160" height="17" rx="8.5" fill="#041335"/><rect x="80" y="48" width="110" height="14" rx="7" fill="#99B7EB"/><circle cx="348" cy="43" r="17" fill="#058EF4"/></g><g transform="translate(152,286)"><rect width="386" height="86" rx="20" fill="#F0F4FC"/><rect x="16" y="20" width="46" height="46" rx="12" fill="#FFFFFF"/><path d="M29 38 h20 M29 48 h13" stroke="#0052CD" stroke-width="4" stroke-linecap="round"/><rect x="80" y="20" width="190" height="17" rx="8.5" fill="#041335"/><rect x="80" y="48" width="90" height="14" rx="7" fill="#99B7EB"/><circle cx="348" cy="43" r="17" fill="#99B7EB"/></g><g transform="translate(152,396)"><rect width="386" height="86" rx="20" fill="#F0F4FC"/><rect x="16" y="20" width="46" height="46" rx="12" fill="#FFFFFF"/><path d="M29 38 h20 M29 48 h13" stroke="#0052CD" stroke-width="4" stroke-linecap="round"/><rect x="80" y="20" width="140" height="17" rx="8.5" fill="#041335"/><rect x="80" y="48" width="120" height="14" rx="7" fill="#99B7EB"/><circle cx="348" cy="43" r="17" fill="#0052CD"/></g></g><g filter="url(#soft)"><circle cx="630" cy="430" r="90" fill="url(#bluev)"/><circle cx="630" cy="404" r="26" fill="#FFFFFF"/><path d="M588 470 a42 32 0 0 1 84 0 v12 h-84 z" fill="#FFFFFF"/></g><g filter="url(#soft)"><circle cx="712" cy="300" r="54" fill="#FFFFFF"/><circle cx="712" cy="286" r="17" fill="#058EF4"/><path d="M684 322 a28 20 0 0 1 56 0 v8 h-56 z" fill="#99B7EB"/></g><g filter="url(#soft)"><rect x="560" y="150" width="200 " height="60" rx="18" fill="#041335"/><circle cx="592" cy="180" r="14" fill="#058EF4"/><path d="M586 180 l4.5 4.5 l9 -10" stroke="#FFFFFF" stroke-width="3" fill="none" stroke-linecap="round" stroke-linejoin="round"/><rect x="616" y="166" width="120" height="12" rx="6" fill="#FFFFFF"/><rect x="616" y="186" width="80" height="10" rx="5" fill="#3373D7"/></g></svg>