<svg xmlns="http://www.w3.org/2000/svg" viewBox="0 0 840 840" font-family="Manrope, -apple-system, sans-serif"><defs><linearGradient id="bg" x1="0" y1="0" x2="1" y2="1"><stop offset="0" stop-color="#F0F4FC"/><stop offset="1" stop-color="#CCDBF5"/></linearGradient><linearGradient id="bluev" x1="0" y1="0" x2="0" y2="1"><stop offset="0" stop-color="#058EF4"/><stop offset="1" stop-color="#0052CD"/></linearGradient><filter id="soft" x="-40%" y="-40%" width="180%" height="180%"><feDropShadow dx="0" dy="8" stdDeviation="14" flood-color="#0052CD" flood-opacity="0.18"/></filter></defs><rect width="840" height="840" rx="72" fill="#041335"/><path d="M4.48 0.0V-46.08H22.912Q27.84 -46.08 30.880000000000003 -44.111999999999995Q33.92 -42.144 35.328 -39.168Q36.736000000000004 -36.192 36.736000000000004 -33.152Q36.736000000000004 -29.28 34.992000000000004 -26.72Q33.248 -24.16 30.208000000000002 -23.296V-24.896Q34.528 -24.0 36.688 -20.896Q38.848 -17.792 38.848 -13.952Q38.848 -9.824 37.328 -6.688Q35.808 -3.552 32.704 -1.776Q29.6 0.0 24.896 0.0ZM13.312000000000001 -8.192H24.0Q25.76 -8.192 27.136000000000003 -8.943999999999999Q28.512 -9.696 29.296 -11.056000000000001Q30.080000000000002 -12.416 30.080000000000002 -14.272Q30.080000000000002 -15.904 29.408 -17.183999999999997Q28.736 -18.464 27.376 -19.216Q26.016000000000002 -19.968 24.0 -19.968H13.312000000000001ZM13.312000000000001 -28.096H22.784Q24.256 -28.096 25.408 -28.608Q26.560000000000002 -29.12 27.232 -30.192Q27.904 -31.264 27.904 -32.96Q27.904 -35.072 26.592 -36.512Q25.28 -37.952 22.784 -37.952H13.312000000000001ZM55.744 -49.088 53.6 -53.344Q55.584 -55.04 58.192 -55.472Q60.8 -55.904 63.104 -54.832Q65.408 -53.76 66.464 -50.912Q67.328 -48.576 66.96000000000001 -46.688Q66.592 -44.800000000000004 65.392 -43.408Q64.19200000000001 -42.016 62.56 -41.232Q60.928 -40.448 59.296 -40.32L57.952 -43.808Q59.68 -44.256 60.912000000000006 -45.488Q62.144000000000005 -46.72 61.28 -48.608000000000004Q60.736000000000004 -49.824 59.760000000000005 -50.064Q58.784000000000006 -50.304 57.696000000000005 -49.984Q56.608000000000004 -49.664 55.744 -49.088ZM54.848 0.96Q51.136 0.96 48.56 -0.4640000000000001Q45.984 -1.8880000000000001 44.656000000000006 -4.272Q43.328 -6.656000000000001 43.328 -9.536Q43.328 -11.936 44.064 -13.92Q44.8 -15.904 46.448 -17.424Q48.096000000000004 -18.944 50.88 -19.968Q52.8 -20.672 55.456 -21.216Q58.112 -21.76 61.471999999999994 -22.256Q64.832 -22.752 68.864 -23.36L65.72800000000001 -21.632Q65.72800000000001 -24.704 64.256 -26.144Q62.784000000000006 -27.584 59.328 -27.584Q57.408 -27.584 55.328 -26.656Q53.248000000000005 -25.728 52.416 -23.36L44.544000000000004 -25.856Q45.856 -30.144000000000002 49.472 -32.832Q53.088 -35.52 59.328 -35.52Q63.903999999999996 -35.52 67.456 -34.112Q71.00800000000001 -32.704 72.832 -29.248Q73.856 -27.328 74.048 -25.408Q74.24000000000001 -23.488 74.24000000000001 -21.12V0.0H66.624V-7.104L67.712 -5.632Q65.184 -2.144 62.256 -0.5920000000000001Q59.328 0.96 54.848 0.96ZM56.704 -5.888Q59.104 -5.888 60.752 -6.736000000000001Q62.400000000000006 -7.5840000000000005 63.376000000000005 -8.672Q64.352 -9.76 64.70400000000001 -10.496Q65.376 -11.904 65.488 -13.776Q65.6 -15.648 65.6 -16.896L68.16 -16.256Q64.288 -15.616 61.888 -15.184000000000001Q59.488 -14.752 58.016 -14.4Q56.544 -14.048 55.424 -13.632Q54.144 -13.120000000000001 53.36 -12.528Q52.576 -11.936 52.208 -11.232Q51.84 -10.528 51.84 -9.664Q51.84 -8.48 52.432 -7.632Q53.024 -6.784 54.112 -6.336Q55.2 -5.888 56.704 -5.888ZM98.112 0.96Q92.896 0.96 88.96000000000001 -1.3760000000000001Q85.024 -3.712 82.832 -7.824Q80.64 -11.936 80.64 -17.28Q80.64 -22.688 82.88 -26.799999999999997Q85.12 -30.912 89.05600000000001 -33.216Q92.992 -35.52 98.112 -35.52Q103.328 -35.52 107.28 -33.184Q111.232 -30.848 113.44 -26.735999999999997Q115.648 -22.624 115.648 -17.28Q115.648 -11.904 113.42399999999999 -7.792Q111.19999999999999 -3.68 107.24799999999999 -1.36Q103.29599999999999 0.96 98.112 0.96ZM98.112 -7.168Q102.304 -7.168 104.368 -10.0Q106.432 -12.832 106.432 -17.28Q106.432 -21.888 104.336 -24.64Q102.24 -27.392 98.112 -27.392Q95.264 -27.392 93.44 -26.112000000000002Q91.616 -24.832 90.73599999999999 -22.560000000000002Q89.856 -20.288 89.856 -17.28Q89.856 -12.64 91.952 -9.904Q94.048 -7.168 98.112 -7.168ZM144.83200000000002 0.0 132.288 -34.56H140.99200000000002L149.18400000000003 -10.624L157.376 -34.56H166.08L153.536 0.0ZM182.43200000000002 12.48V4.8H191.13600000000002V12.48ZM174.46400000000003 -39.36 183.68 -49.92H190.848L200.06400000000002 -39.36H192.06400000000002L187.264 -45.12L182.46400000000003 -39.36ZM187.90400000000002 0.96Q182.592 0.96 178.544 -1.328Q174.496 -3.616 172.20800000000003 -7.632Q169.92000000000002 -11.648 169.92000000000002 -16.832Q169.92000000000002 -22.496000000000002 172.16000000000003 -26.688000000000002Q174.4 -30.88 178.336 -33.2Q182.27200000000002 -35.52 187.39200000000002 -35.52Q192.83200000000002 -35.52 196.64000000000001 -32.96Q200.448 -30.400000000000002 202.272 -25.76Q204.096 -21.12 203.55200000000002 -14.848H194.94400000000002V-18.048000000000002Q194.94400000000002 -23.328 193.264 -25.648Q191.584 -27.968 187.776 -27.968Q183.328 -27.968 181.23200000000003 -25.264Q179.13600000000002 -22.56 179.13600000000002 -17.28Q179.13600000000002 -12.448 181.23200000000003 -9.808Q183.328 -7.168 187.39200000000002 -7.168Q189.952 -7.168 191.776 -8.288Q193.60000000000002 -9.408 194.56 -11.52L203.264 -9.024000000000001Q201.312 -4.288 197.104 -1.6640000000000001Q192.89600000000002 0.96 187.90400000000002 0.96ZM176.448 -14.848V-21.312H199.36V-14.848ZM223.55200000000002 0.0V-46.08H238.46400000000003Q239.00800000000004 -46.08 240.70400000000004 -46.048Q242.40000000000003 -46.016 243.96800000000002 -45.824Q249.53600000000003 -45.152 253.40800000000002 -41.952Q257.28000000000003 -38.752 259.29600000000005 -33.824Q261.312 -28.896 261.312 -23.04Q261.312 -17.184 259.29600000000005 -12.256Q257.28000000000003 -7.328 253.40800000000002 -4.128Q249.53600000000003 -0.928 243.96800000000002 -0.256Q242.40000000000003 -0.064 240.70400000000004 -0.032Q239.00800000000004 0.0 238.46400000000003 0.0ZM232.38400000000004 -8.192H238.46400000000003Q239.32800000000003 -8.192 240.8 -8.24Q242.27200000000002 -8.288 243.45600000000002 -8.512Q246.46400000000003 -9.120000000000001 248.36800000000002 -11.328Q250.27200000000002 -13.536 251.18400000000003 -16.64Q252.09600000000003 -19.744 252.09600000000003 -23.04Q252.09600000000003 -26.496000000000002 251.15200000000004 -29.6Q250.20800000000003 -32.704 248.288 -34.848Q246.36800000000002 -36.992 243.45600000000002 -37.568Q242.27200000000002 -37.824 240.8 -37.855999999999995Q239.32800000000003 -37.888 238.46400000000003 -37.888H232.38400000000004ZM268.9920000000001 0.0V-34.56H276.6720000000001V-26.112000000000002L275.84000000000003 -27.2Q276.51200000000006 -28.992 277.63200000000006 -30.464Q278.75200000000007 -31.936 280.38400000000007 -32.896Q281.63200000000006 -33.664 283.10400000000004 -34.096000000000004Q284.5760000000001 -34.528 286.14400000000006 -34.64Q287.71200000000005 -34.752 289.2800000000001 -34.56V-26.432000000000002Q287.84000000000003 -26.88 285.93600000000004 -26.736Q284.03200000000004 -26.592000000000002 282.49600000000004 -25.856Q280.96000000000004 -25.152 279.90400000000005 -23.984Q278.84800000000007 -22.816 278.3040000000001 -21.232Q277.76000000000005 -19.648 277.76000000000005 -17.664V0.0ZM296.00000000000006 -39.36V-47.04H304.70400000000006V-39.36ZM296.00000000000006 0.0V-34.56H304.70400000000006V0.0ZM323.6480000000001 0.0 311.10400000000004 -34.56H319.80800000000005L328.00000000000006 -10.624L336.19200000000006 -34.56H344.8960000000001L332.3520000000001 0.0ZM366.72 0.96Q361.4080000000001 0.96 357.36000000000007 -1.328Q353.31200000000007 -3.616 351.02400000000006 -7.632Q348.73600000000005 -11.648 348.73600000000005 -16.832Q348.73600000000005 -22.496000000000002 350.97600000000006 -26.688000000000002Q353.21600000000007 -30.88 357.15200000000004 -33.2Q361.088 -35.52 366.208 -35.52Q371.648 -35.52 375.456 -32.96Q379.26400000000007 -30.400000000000002 381.0880000000001 -25.76Q382.91200000000003 -21.12 382.36800000000005 -14.848H373.76000000000005V-18.048000000000002Q373.76000000000005 -23.328 372.08000000000004 -25.648Q370.40000000000003 -27.968 366.59200000000004 -27.968Q362.14400000000006 -27.968 360.04800000000006 -25.264Q357.95200000000006 -22.56 357.95200000000006 -17.28Q357.95200000000006 -12.448 360.04800000000006 -9.808Q362.14400000000006 -7.168 366.208 -7.168Q368.76800000000003 -7.168 370.59200000000004 -8.288Q372.41600000000005 -9.408 373.37600000000003 -11.52L382.08000000000004 -9.024000000000001Q380.12800000000004 -4.288 375.9200000000001 -1.6640000000000001Q371.71200000000005 0.96 366.72 0.96ZM355.26400000000007 -14.848V-21.312H378.17600000000004V-14.848Z" transform="translate(90,230)" fill="#FFFFFF"/><path d="M21.44 0.96Q16.288 0.96 12.832 -1.44Q9.376 -3.84 7.632 -7.968Q5.888 -12.096 5.888 -17.28Q5.888 -22.464000000000002 7.616 -26.592Q9.344 -30.72 12.704 -33.120000000000005Q16.064 -35.52 20.992 -35.52Q25.952 -35.52 29.631999999999998 -33.152Q33.312 -30.784 35.343999999999994 -26.671999999999997Q37.376 -22.56 37.376 -17.28Q37.376 -12.096 35.376 -7.968Q33.376 -3.84 29.792 -1.44Q26.208000000000002 0.96 21.44 0.96ZM4.416 0.0V-46.08H13.184000000000001V-23.68H12.096V0.0ZM20.032 -6.784Q22.848 -6.784 24.64 -8.192Q26.432000000000002 -9.6 27.296 -11.984Q28.16 -14.368 28.16 -17.28Q28.16 -20.16 27.264000000000003 -22.544Q26.368000000000002 -24.928 24.496000000000002 -26.352Q22.624 -27.776 19.712 -27.776Q16.992 -27.776 15.312000000000001 -26.464Q13.632 -25.152 12.864 -22.784Q12.096 -20.416 12.096 -17.28Q12.096 -14.144 12.864 -11.776Q13.632 -9.408 15.376000000000001 -8.096Q17.12 -6.784 20.032 -6.784ZM58.912 -38.4Q56.096000000000004 -38.4 53.792 -39.775999999999996Q51.488 -41.152 50.112 -43.456Q48.736000000000004 -45.76 48.736000000000004 -48.576H55.456Q55.456 -47.136 56.464 -46.128Q57.472 -45.12 58.912 -45.12Q60.352000000000004 -45.12 61.36 -46.128Q62.368 -47.136 62.368 -48.576H69.088Q69.088 -45.76 67.71199999999999 -43.456Q66.336 -41.152 64.032 -39.775999999999996Q61.728 -38.4 58.912 -38.4ZM55.488 -51.84 50.176 -64.32000000000001H56.64L61.952 -51.84ZM54.016 0.96Q50.304 0.96 47.728 -0.4640000000000001Q45.152 -1.8880000000000001 43.824 -4.272Q42.496 -6.656000000000001 42.496 -9.536Q42.496 -11.936 43.232 -13.92Q43.968 -15.904 45.616 -17.424Q47.264 -18.944 50.048 -19.968Q51.968 -20.672 54.624 -21.216Q57.28 -21.76 60.64 -22.256Q64.0 -22.752 68.032 -23.36L64.896 -21.632Q64.896 -24.704 63.424 -26.144Q61.952 -27.584 58.495999999999995 -27.584Q56.576 -27.584 54.495999999999995 -26.656Q52.416 -25.728 51.584 -23.36L43.712 -25.856Q45.024 -30.144000000000002 48.64 -32.832Q52.256 -35.52 58.495999999999995 -35.52Q63.072 -35.52 66.624 -34.112Q70.176 -32.704 72.0 -29.248Q73.024 -27.328 73.21600000000001 -25.408Q73.408 -23.488 73.408 -21.12V0.0H65.792V-7.104L66.88 -5.632Q64.352 -2.144 61.424 -0.5920000000000001Q58.495999999999995 0.96 54.016 0.96ZM55.872 -5.888Q58.272000000000006 -5.888 59.92 -6.736000000000001Q61.568 -7.5840000000000005 62.544 -8.672Q63.519999999999996 -9.76 63.872 -10.496Q64.544 -11.904 64.656 -13.776Q64.768 -15.648 64.768 -16.896L67.328 -16.256Q63.456 -15.616 61.056 -15.184000000000001Q58.656 -14.752 57.184 -14.4Q55.712 -14.048 54.592 -13.632Q53.312 -13.120000000000001 52.528 -12.528Q51.744 -11.936 51.376000000000005 -11.232Q51.008 -10.528 51.008 -9.664Q51.008 -8.48 51.6 -7.632Q52.192 -6.784 53.28 -6.336Q54.368 -5.888 55.872 -5.888ZM105.27999999999999 0.0V-16.32Q105.27999999999999 -17.504 105.15199999999999 -19.344Q105.02399999999999 -21.184 104.35199999999999 -23.04Q103.67999999999999 -24.896 102.16 -26.144Q100.63999999999999 -27.392 97.856 -27.392Q96.73599999999999 -27.392 95.45599999999999 -27.04Q94.17599999999999 -26.688 93.05599999999998 -25.68Q91.93599999999999 -24.672 91.216 -22.72Q90.496 -20.768 90.496 -17.536L85.50399999999999 -19.904Q85.50399999999999 -24.0 87.16799999999999 -27.584Q88.832 -31.168 92.17599999999999 -33.376000000000005Q95.52 -35.584 100.60799999999999 -35.584Q104.672 -35.584 107.232 -34.208Q109.792 -32.832 111.216 -30.72Q112.63999999999999 -28.608 113.24799999999999 -26.32Q113.856 -24.032 113.984 -22.144Q114.112 -20.256 114.112 -19.392V0.0ZM81.66399999999999 0.0V-34.56H89.40799999999999V-23.104H90.496V0.0ZM137.216 16.32Q134.272 16.32 131.61599999999999 15.376000000000001Q128.96 14.432 126.864 12.752Q124.768 11.072000000000001 123.456 8.832L131.52 4.928Q132.352 6.464 133.904 7.264Q135.456 8.064 137.28 8.064Q139.232 8.064 140.95999999999998 7.4079999999999995Q142.688 6.752 143.728 5.4559999999999995Q144.768 4.16 144.704 2.24V-7.808H145.792V-34.56H153.40800000000002V2.368Q153.40800000000002 3.648 153.296 4.784Q153.184 5.92 152.89600000000002 7.04Q152.064 10.208 149.808 12.256Q147.552 14.304 144.288 15.312000000000001Q141.024 16.32 137.216 16.32ZM136.448 0.96Q131.68 0.96 128.096 -1.44Q124.512 -3.84 122.512 -7.968Q120.512 -12.096 120.512 -17.28Q120.512 -22.56 122.544 -26.671999999999997Q124.576 -30.784 128.256 -33.152Q131.936 -35.52 136.896 -35.52Q141.824 -35.52 145.18400000000003 -33.120000000000005Q148.544 -30.72 150.272 -26.592Q152.0 -22.464000000000002 152.0 -17.28Q152.0 -12.096 150.256 -7.968Q148.512 -3.84 145.05599999999998 -1.44Q141.6 0.96 136.448 0.96ZM137.856 -6.784Q140.768 -6.784 142.512 -8.096Q144.256 -9.408 145.024 -11.776Q145.792 -14.144 145.792 -17.28Q145.792 -20.416 145.024 -22.784Q144.256 -25.152 142.576 -26.464Q140.896 -27.776 138.176 -27.776Q135.264 -27.776 133.392 -26.352Q131.52 -24.928 130.62400000000002 -22.544Q129.728 -20.16 129.728 -17.28Q129.728 -14.368 130.59199999999998 -11.984Q131.456 -9.6 133.248 -8.192Q135.04 -6.784 137.856 -6.784ZM171.96800000000002 0.0 186.048 -46.08H199.04000000000002L213.12 0.0H204.16000000000003L191.616 -40.64H193.28000000000003L180.92800000000003 0.0ZM180.41600000000003 -9.6V-17.728H204.73600000000002V-9.6ZM219.52000000000004 0.0V-46.08H228.22400000000005V0.0ZM237.18400000000003 8.64 237.69600000000003 4.992Q239.23200000000003 5.12 240.192 4.496Q241.15200000000002 3.872 241.52000000000004 2.7039999999999997Q241.88800000000003 1.536 241.66400000000002 0.0H237.18400000000003V-8.704H245.88800000000003V0.0Q245.88800000000003 4.6080000000000005 243.74400000000003 6.976Q241.60000000000002 9.344 237.18400000000003 8.64Z" transform="translate(90,320)" fill="#99B7EB"/><path d="M18.496 0.96Q13.728 0.96 10.144 -1.44Q6.5600000000000005 -3.84 4.5600000000000005 -7.968Q2.56 -12.096 2.56 -17.28Q2.56 -22.56 4.5920000000000005 -26.671999999999997Q6.6240000000000006 -30.784 10.304 -33.152Q13.984 -35.52 18.944 -35.52Q23.872 -35.52 27.232 -33.120000000000005Q30.592000000000002 -30.72 32.32 -26.592Q34.048 -22.464000000000002 34.048 -17.28Q34.048 -12.096 32.304 -7.968Q30.560000000000002 -3.84 27.104 -1.44Q23.648 0.96 18.496 0.96ZM19.904 -6.784Q22.816 -6.784 24.560000000000002 -8.096Q26.304000000000002 -9.408 27.072000000000003 -11.776Q27.84 -14.144 27.84 -17.28Q27.84 -20.416 27.072000000000003 -22.784Q26.304000000000002 -25.152 24.624000000000002 -26.464Q22.944 -27.776 20.224 -27.776Q17.312 -27.776 15.440000000000001 -26.352Q13.568 -24.928 12.672 -22.544Q11.776 -20.16 11.776 -17.28Q11.776 -14.368 12.64 -11.984Q13.504 -9.6 15.296 -8.192Q17.088 -6.784 19.904 -6.784ZM27.84 0.0V-23.68H26.752V-46.08H35.52V0.0ZM76.096 -40.288000000000004 82.56 -40.32Q83.03999999999999 -36.544000000000004 82.096 -34.288000000000004Q81.152 -32.032000000000004 79.104 -30.912Q77.024 -29.76 74.416 -29.744Q71.80799999999999 -29.728 69.76 -29.952V-34.56Q70.464 -34.56 71.088 -34.576Q71.712 -34.592 72.32 -34.688Q74.848 -35.104 75.47200000000001 -36.751999999999995Q76.096 -38.4 76.096 -40.288000000000004ZM66.24000000000001 -39.552Q64.672 -39.552 63.248 -40.272Q61.824 -40.992 60.528 -41.92Q59.232 -42.848 58.112 -43.568Q56.992000000000004 -44.288000000000004 56.064 -44.288000000000004Q55.104 -44.288000000000004 54.736000000000004 -43.216Q54.368 -42.144 54.784 -40.512H49.408Q48.416 -44.704 49.808 -47.6Q51.2 -50.496 55.232 -50.496Q56.8 -50.496 58.224 -49.776Q59.647999999999996 -49.056000000000004 60.944 -48.128Q62.24 -47.2 63.36 -46.480000000000004Q64.48 -45.76 65.408 -45.76Q66.368 -45.76 66.752 -46.832Q67.136 -47.904 66.688 -49.536H72.064Q73.088 -45.376 71.68 -42.464Q70.272 -39.552 66.24000000000001 -39.552ZM57.344 1.024Q53.28 1.024 50.72 -0.352Q48.16 -1.728 46.736 -3.84Q45.312 -5.952 44.704 -8.24Q44.096000000000004 -10.528 43.968 -12.416Q43.84 -14.304 43.84 -15.168000000000001V-34.56H52.672V-18.240000000000002Q52.672 -17.056 52.8 -15.216000000000001Q52.928 -13.376 53.599999999999994 -11.52Q54.272 -9.664 55.792 -8.416Q57.312 -7.168 60.096000000000004 -7.168Q61.216 -7.168 62.495999999999995 -7.52Q63.775999999999996 -7.872 64.896 -8.879999999999999Q66.016 -9.888 66.736 -11.856Q67.456 -13.824 67.456 -17.024L72.44800000000001 -14.656Q72.44800000000001 -10.56 70.784 -6.976Q69.12 -3.392 65.77600000000001 -1.184Q62.432 1.024 57.344 1.024ZM68.544 0.0V-11.456H67.456V-34.56H76.224V0.0ZM98.62400000000001 0.0V-47.04H107.328V0.0ZM117.56800000000001 -39.36V-47.04H126.272V-39.36ZM117.56800000000001 0.0V-34.56H126.272V0.0ZM146.464 12.48V4.8H155.168V12.48ZM138.496 -39.36 147.712 -49.92H154.88L164.096 -39.36H156.096L151.296 -45.12L146.496 -39.36ZM151.936 0.96Q146.624 0.96 142.576 -1.328Q138.528 -3.616 136.24 -7.632Q133.952 -11.648 133.952 -16.832Q133.952 -22.496000000000002 136.192 -26.688000000000002Q138.432 -30.88 142.368 -33.2Q146.304 -35.52 151.424 -35.52Q156.864 -35.52 160.672 -32.96Q164.48 -30.400000000000002 166.30399999999997 -25.76Q168.128 -21.12 167.584 -14.848H158.976V-18.048000000000002Q158.976 -23.328 157.296 -25.648Q155.61599999999999 -27.968 151.808 -27.968Q147.35999999999999 -27.968 145.264 -25.264Q143.168 -22.56 143.168 -17.28Q143.168 -12.448 145.264 -9.808Q147.35999999999999 -7.168 151.424 -7.168Q153.98399999999998 -7.168 155.808 -8.288Q157.632 -9.408 158.59199999999998 -11.52L167.296 -9.024000000000001Q165.344 -4.288 161.136 -1.6640000000000001Q156.928 0.96 151.936 0.96ZM140.48 -14.848V-21.312H163.392V-14.848ZM187.648 1.024Q183.584 1.024 181.024 -0.352Q178.464 -1.728 177.04000000000002 -3.84Q175.616 -5.952 175.008 -8.24Q174.4 -10.528 174.272 -12.416Q174.144 -14.304 174.144 -15.168000000000001V-34.56H182.976V-18.240000000000002Q182.976 -17.056 183.10399999999998 -15.216000000000001Q183.232 -13.376 183.904 -11.52Q184.576 -9.664 186.096 -8.416Q187.616 -7.168 190.4 -7.168Q191.52 -7.168 192.8 -7.52Q194.08 -7.872 195.2 -8.879999999999999Q196.32 -9.888 197.04 -11.856Q197.76 -13.824 197.76 -17.024L202.752 -14.656Q202.752 -10.56 201.08800000000002 -6.976Q199.424 -3.392 196.07999999999998 -1.184Q192.736 1.024 187.648 1.024ZM198.848 0.0V-11.456H197.76V-34.56H206.52800000000002V0.0Z" transform="translate(90,410)" fill="#FFFFFF"/><path d="M237.88800000000003 0.96Q234.17600000000002 0.96 231.60000000000002 -0.4640000000000001Q229.02400000000003 -1.8880000000000001 227.69600000000003 -4.272Q226.36800000000002 -6.656000000000001 226.36800000000002 -9.536Q226.36800000000002 -11.936 227.10400000000004 -13.92Q227.84000000000003 -15.904 229.48800000000003 -17.424Q231.13600000000002 -18.944 233.92000000000002 -19.968Q235.84000000000003 -20.672 238.49600000000004 -21.216Q241.15200000000002 -21.76 244.512 -22.256Q247.872 -22.752 251.90400000000002 -23.36L248.76800000000003 -21.632Q248.76800000000003 -24.704 247.29600000000002 -26.144Q245.824 -27.584 242.36800000000002 -27.584Q240.44800000000004 -27.584 238.36800000000002 -26.656Q236.288 -25.728 235.45600000000002 -23.36L227.58400000000003 -25.856Q228.89600000000002 -30.144000000000002 232.512 -32.832Q236.12800000000001 -35.52 242.36800000000002 -35.52Q246.94400000000002 -35.52 250.49600000000004 -34.112Q254.04800000000003 -32.704 255.872 -29.248Q256.896 -27.328 257.088 -25.408Q257.28000000000003 -23.488 257.28000000000003 -21.12V0.0H249.66400000000002V-7.104L250.752 -5.632Q248.22400000000002 -2.144 245.29600000000002 -0.5920000000000001Q242.36800000000002 0.96 237.88800000000003 0.96ZM239.74400000000003 -5.888Q242.14400000000003 -5.888 243.79200000000003 -6.736000000000001Q245.44000000000003 -7.5840000000000005 246.41600000000003 -8.672Q247.39200000000002 -9.76 247.74400000000003 -10.496Q248.41600000000003 -11.904 248.52800000000002 -13.776Q248.64000000000001 -15.648 248.64000000000001 -16.896L251.20000000000002 -16.256Q247.32800000000003 -15.616 244.92800000000003 -15.184000000000001Q242.52800000000002 -14.752 241.05600000000004 -14.4Q239.58400000000003 -14.048 238.46400000000003 -13.632Q237.18400000000003 -13.120000000000001 236.40000000000003 -12.528Q235.616 -11.936 235.24800000000002 -11.232Q234.88000000000002 -10.528 234.88000000000002 -9.664Q234.88000000000002 -8.48 235.47200000000004 -7.632Q236.06400000000002 -6.784 237.15200000000002 -6.336Q238.24 -5.888 239.74400000000003 -5.888ZM289.152 0.0V-16.32Q289.152 -17.504 289.024 -19.344Q288.896 -21.184 288.22400000000005 -23.04Q287.552 -24.896 286.03200000000004 -26.144Q284.512 -27.392 281.728 -27.392Q280.608 -27.392 279.328 -27.04Q278.048 -26.688 276.928 -25.68Q275.808 -24.672 275.08799999999997 -22.72Q274.368 -20.768 274.368 -17.536L269.376 -19.904Q269.376 -24.0 271.03999999999996 -27.584Q272.704 -31.168 276.048 -33.376000000000005Q279.392 -35.584 284.48 -35.584Q288.544 -35.584 291.104 -34.208Q293.664 -32.832 295.08799999999997 -30.72Q296.512 -28.608 297.12 -26.32Q297.728 -24.032 297.856 -22.144Q297.98400000000004 -20.256 297.98400000000004 -19.392V0.0ZM265.536 0.0V-34.56H273.28000000000003V-23.104H274.368V0.0ZM339.84000000000003 0.0Q336.25600000000003 0.672 332.81600000000003 0.5920000000000001Q329.37600000000003 0.512 326.672 -0.624Q323.968 -1.76 322.56 -4.288Q321.28000000000003 -6.656000000000001 321.216 -9.104Q321.15200000000004 -11.552 321.15200000000004 -14.656V-44.160000000000004H329.85600000000005V-15.168000000000001Q329.85600000000005 -13.152000000000001 329.904 -11.536000000000001Q329.952 -9.92 330.56 -8.96Q331.71200000000005 -7.136 334.24 -6.976Q336.76800000000003 -6.816 339.84000000000003 -7.232ZM315.264 -27.84V-34.56H339.84000000000003V-27.84ZM363.072 0.96Q357.856 0.96 353.92 -1.3760000000000001Q349.98400000000004 -3.712 347.79200000000003 -7.824Q345.6 -11.936 345.6 -17.28Q345.6 -22.688 347.84000000000003 -26.799999999999997Q350.08000000000004 -30.912 354.016 -33.216Q357.952 -35.52 363.072 -35.52Q368.288 -35.52 372.24 -33.184Q376.192 -30.848 378.4 -26.735999999999997Q380.608 -22.624 380.608 -17.28Q380.608 -11.904 378.384 -7.792Q376.16 -3.68 372.208 -1.36Q368.25600000000003 0.96 363.072 0.96ZM363.072 -7.168Q367.264 -7.168 369.328 -10.0Q371.392 -12.832 371.392 -17.28Q371.392 -21.888 369.29600000000005 -24.64Q367.20000000000005 -27.392 363.072 -27.392Q360.22400000000005 -27.392 358.40000000000003 -26.112000000000002Q356.576 -24.832 355.696 -22.560000000000002Q354.81600000000003 -20.288 354.81600000000003 -17.28Q354.81600000000003 -12.64 356.91200000000003 -9.904Q359.00800000000004 -7.168 363.072 -7.168ZM398.976 -39.36 393.664 -51.84H400.128L405.44 -39.36ZM397.248 0.96Q393.536 0.96 390.96000000000004 -0.4640000000000001Q388.384 -1.8880000000000001 387.05600000000004 -4.272Q385.728 -6.656000000000001 385.728 -9.536Q385.728 -11.936 386.464 -13.92Q387.2 -15.904 388.84799999999996 -17.424Q390.496 -18.944 393.28000000000003 -19.968Q395.2 -20.672 397.856 -21.216Q400.512 -21.76 403.872 -22.256Q407.232 -22.752 411.264 -23.36L408.128 -21.632Q408.128 -24.704 406.656 -26.144Q405.184 -27.584 401.728 -27.584Q399.808 -27.584 397.728 -26.656Q395.648 -25.728 394.81600000000003 -23.36L386.944 -25.856Q388.25600000000003 -30.144000000000002 391.872 -32.832Q395.488 -35.52 401.728 -35.52Q406.30400000000003 -35.52 409.856 -34.112Q413.408 -32.704 415.232 -29.248Q416.25600000000003 -27.328 416.448 -25.408Q416.64 -23.488 416.64 -21.12V0.0H409.024V-7.104L410.112 -5.632Q407.584 -2.144 404.656 -0.5920000000000001Q401.728 0.96 397.248 0.96ZM399.104 -5.888Q401.504 -5.888 403.15200000000004 -6.736000000000001Q404.8 -7.5840000000000005 405.776 -8.672Q406.752 -9.76 407.104 -10.496Q407.776 -11.904 407.88800000000003 -13.776Q408.0 -15.648 408.0 -16.896L410.56 -16.256Q406.688 -15.616 404.288 -15.184000000000001Q401.88800000000003 -14.752 400.41600000000005 -14.4Q398.944 -14.048 397.824 -13.632Q396.544 -13.120000000000001 395.76 -12.528Q394.976 -11.936 394.608 -11.232Q394.24 -10.528 394.24 -9.664Q394.24 -8.48 394.832 -7.632Q395.424 -6.784 396.512 -6.336Q397.6 -5.888 399.104 -5.888ZM448.512 0.0V-16.32Q448.512 -17.504 448.384 -19.344Q448.25600000000003 -21.184 447.58400000000006 -23.04Q446.91200000000003 -24.896 445.39200000000005 -26.144Q443.872 -27.392 441.088 -27.392Q439.968 -27.392 438.688 -27.04Q437.408 -26.688 436.288 -25.68Q435.168 -24.672 434.448 -22.72Q433.728 -20.768 433.728 -17.536L428.736 -19.904Q428.736 -24.0 430.4 -27.584Q432.064 -31.168 435.408 -33.376000000000005Q438.752 -35.584 443.84000000000003 -35.584Q447.904 -35.584 450.464 -34.208Q453.024 -32.832 454.448 -30.72Q455.872 -28.608 456.48 -26.32Q457.088 -24.032 457.216 -22.144Q457.34400000000005 -20.256 457.34400000000005 -19.392V0.0ZM424.896 0.0V-34.56H432.64000000000004V-23.104H433.728V0.0Z" transform="translate(90,410)" fill="#058EF4"/><path d="M25.216 0.0Q21.632 0.672 18.192 0.5920000000000001Q14.752 0.512 12.048 -0.624Q9.344 -1.76 7.936 -4.288Q6.656000000000001 -6.656000000000001 6.5920000000000005 -9.104Q6.5280000000000005 -11.552 6.5280000000000005 -14.656V-44.160000000000004H15.232000000000001V-15.168000000000001Q15.232000000000001 -13.152000000000001 15.280000000000001 -11.536000000000001Q15.328000000000001 -9.92 15.936 -8.96Q17.088 -7.136 19.616 -6.976Q22.144000000000002 -6.816 25.216 -7.232ZM0.64 -27.84V-34.56H25.216V-27.84ZM45.760000000000005 1.024Q41.696 1.024 39.135999999999996 -0.352Q36.576 -1.728 35.152 -3.84Q33.728 -5.952 33.120000000000005 -8.24Q32.512 -10.528 32.384 -12.416Q32.256 -14.304 32.256 -15.168000000000001V-34.56H41.088V-18.240000000000002Q41.088 -17.056 41.216 -15.216000000000001Q41.344 -13.376 42.016000000000005 -11.52Q42.688 -9.664 44.208 -8.416Q45.728 -7.168 48.512 -7.168Q49.632000000000005 -7.168 50.912000000000006 -7.52Q52.192 -7.872 53.312 -8.879999999999999Q54.432 -9.888 55.152 -11.856Q55.872 -13.824 55.872 -17.024L60.864000000000004 -14.656Q60.864000000000004 -10.56 59.2 -6.976Q57.536 -3.392 54.192 -1.184Q50.848 1.024 45.760000000000005 1.024ZM56.96 0.0V-11.456H55.872V-34.56H64.64V0.0ZM78.016 15.36 84.672 -2.944 84.80000000000001 2.432 69.76 -34.56H78.784L88.896 -8.384H86.84800000000001L96.896 -34.56H105.60000000000001L86.08000000000001 15.36ZM120.67200000000001 12.48V4.8H129.376V12.48ZM112.70400000000001 -39.36 121.92000000000002 -49.92H129.08800000000002L138.304 -39.36H130.304L125.504 -45.12L120.70400000000001 -39.36ZM126.144 0.96Q120.83200000000001 0.96 116.784 -1.328Q112.736 -3.616 110.44800000000001 -7.632Q108.16000000000001 -11.648 108.16000000000001 -16.832Q108.16000000000001 -22.496000000000002 110.4 -26.688000000000002Q112.64000000000001 -30.88 116.57600000000002 -33.2Q120.51200000000001 -35.52 125.632 -35.52Q131.072 -35.52 134.88 -32.96Q138.68800000000002 -30.400000000000002 140.512 -25.76Q142.336 -21.12 141.792 -14.848H133.184V-18.048000000000002Q133.184 -23.328 131.50400000000002 -25.648Q129.824 -27.968 126.016 -27.968Q121.56800000000001 -27.968 119.47200000000001 -25.264Q117.376 -22.56 117.376 -17.28Q117.376 -12.448 119.47200000000001 -9.808Q121.56800000000001 -7.168 125.632 -7.168Q128.192 -7.168 130.01600000000002 -8.288Q131.84 -9.408 132.8 -11.52L141.50400000000002 -9.024000000000001Q139.55200000000002 -4.288 135.34400000000002 -1.6640000000000001Q131.13600000000002 0.96 126.144 0.96ZM114.68800000000002 -14.848V-21.312H137.60000000000002V-14.848ZM169.728 0.0Q166.144 0.672 162.704 0.5920000000000001Q159.264 0.512 156.56 -0.624Q153.856 -1.76 152.448 -4.288Q151.168 -6.656000000000001 151.10399999999998 -9.104Q151.04 -11.552 151.04 -14.656V-44.160000000000004H159.744V-15.168000000000001Q159.744 -13.152000000000001 159.792 -11.536000000000001Q159.84 -9.92 160.448 -8.96Q161.6 -7.136 164.128 -6.976Q166.656 -6.816 169.728 -7.232ZM145.152 -27.84V-34.56H169.728V-27.84ZM207.80800000000002 -37.12V-43.776H225.216V-37.12ZM204.22400000000002 0.96Q199.45600000000002 0.96 195.872 -1.44Q192.288 -3.84 190.288 -7.968Q188.288 -12.096 188.288 -17.28Q188.288 -22.56 190.32 -26.671999999999997Q192.352 -30.784 196.032 -33.152Q199.71200000000002 -35.52 204.672 -35.52Q209.60000000000002 -35.52 212.96000000000004 -33.120000000000005Q216.32000000000002 -30.72 218.048 -26.592Q219.776 -22.464000000000002 219.776 -17.28Q219.776 -12.096 218.032 -7.968Q216.288 -3.84 212.832 -1.44Q209.376 0.96 204.22400000000002 0.96ZM205.632 -6.784Q208.544 -6.784 210.288 -8.096Q212.032 -9.408 212.8 -11.776Q213.568 -14.144 213.568 -17.28Q213.568 -20.416 212.8 -22.784Q212.032 -25.152 210.352 -26.464Q208.672 -27.776 205.952 -27.776Q203.04000000000002 -27.776 201.168 -26.352Q199.29600000000002 -24.928 198.40000000000003 -22.544Q197.50400000000002 -20.16 197.50400000000002 -17.28Q197.50400000000002 -14.368 198.368 -11.984Q199.232 -9.6 201.024 -8.192Q202.816 -6.784 205.632 -6.784ZM213.568 0.0V-23.68H212.48000000000002V-46.08H221.24800000000002V0.0ZM233.34400000000002 -39.36 242.56 -49.92H249.728L258.944 -39.36H250.94400000000002L246.144 -45.12L241.344 -39.36ZM263.84000000000003 -46.08H257.37600000000003L262.688 -58.56H269.152ZM245.76000000000002 0.96Q240.544 0.96 236.608 -1.3760000000000001Q232.672 -3.712 230.48000000000002 -7.824Q228.288 -11.936 228.288 -17.28Q228.288 -22.688 230.52800000000002 -26.799999999999997Q232.768 -30.912 236.704 -33.216Q240.64000000000001 -35.52 245.76000000000002 -35.52Q250.976 -35.52 254.928 -33.184Q258.88 -30.848 261.08799999999997 -26.735999999999997Q263.296 -22.624 263.296 -17.28Q263.296 -11.904 261.072 -7.792Q258.848 -3.68 254.89600000000002 -1.36Q250.94400000000002 0.96 245.76000000000002 0.96ZM245.76000000000002 -7.168Q249.952 -7.168 252.01600000000002 -10.0Q254.08 -12.832 254.08 -17.28Q254.08 -21.888 251.984 -24.64Q249.888 -27.392 245.76000000000002 -27.392Q242.912 -27.392 241.08800000000002 -26.112000000000002Q239.264 -24.832 238.38400000000001 -22.560000000000002Q237.50400000000002 -20.288 237.50400000000002 -17.28Q237.50400000000002 -12.64 239.60000000000002 -9.904Q241.696 -7.168 245.76000000000002 -7.168ZM270.976 -39.36V-47.04H279.68V-39.36ZM270.976 0.0V-34.56H279.68V0.0Z" transform="translate(90,500)" fill="#FFFFFF"/><circle cx="660" cy="660" r="90" fill="#0052CD"/><path d="M660 610 l36 13 v28 c0 24 -15 39 -36 49 c-21 -10 -36 -25 -36 -49 v-28 z" fill="#FFFFFF"/><path d="M644 662 l11 11 l22 -25" fill="none" stroke="#0052CD" stroke-width="8" stroke-linecap="round" stroke-linejoin="round"/></svg>