<svg xmlns="http://www.w3.org/2000/svg" viewBox="0 0 840 840" font-family="Manrope, -apple-system, sans-serif"><defs><linearGradient id="g6" x1="0" y1="0" x2="1" y2="1"><stop offset="0" stop-color="#058EF4"/><stop offset="1" stop-color="#0052CD"/></linearGradient></defs><rect width="840" height="840" rx="72" fill="url(#g6)"/><circle cx="700" cy="120" r="180" fill="#FFFFFF" fill-opacity="0.12"/><circle cx="420" cy="330" r="86" fill="#FFFFFF"/><path d="M420 296 v68 M386 330 h68" stroke="url(#g6)" stroke-width="18" stroke-linecap="round"/><path d="M-237.13199999999998 1.0799999999999998 -252.25199999999998 -13.967999999999998 -246.20399999999998 -20.016 -231.15599999999998 -4.968ZM-255.41999999999996 1.0799999999999998Q-263.19599999999997 1.0799999999999998 -268.8299999999999 -2.304Q-274.46399999999994 -5.688 -277.506 -11.771999999999998Q-280.54799999999994 -17.855999999999998 -280.54799999999994 -25.919999999999998Q-280.54799999999994 -33.983999999999995 -277.506 -40.068Q-274.46399999999994 -46.151999999999994 -268.8299999999999 -49.535999999999994Q-263.19599999999997 -52.919999999999995 -255.41999999999996 -52.919999999999995Q-247.64399999999998 -52.919999999999995 -242.01 -49.535999999999994Q-236.37599999999998 -46.151999999999994 -233.33399999999997 -40.068Q-230.29199999999997 -33.983999999999995 -230.29199999999997 -25.919999999999998Q-230.29199999999997 -17.855999999999998 -233.33399999999997 -11.771999999999998Q-236.37599999999998 -5.688 -242.01 -2.304Q-247.64399999999998 1.0799999999999998 -255.41999999999996 1.0799999999999998ZM-255.41999999999996 -8.136Q-250.48799999999997 -8.064 -247.212 -10.26Q-243.93599999999998 -12.456 -242.29799999999997 -16.488Q-240.65999999999997 -20.52 -240.65999999999997 -25.919999999999998Q-240.65999999999997 -31.319999999999997 -242.29799999999997 -35.279999999999994Q-243.93599999999998 -39.239999999999995 -247.212 -41.43599999999999Q-250.48799999999997 -43.632 -255.41999999999996 -43.70399999999999Q-260.352 -43.775999999999996 -263.628 -41.58Q-266.904 -39.384 -268.542 -35.352Q-270.17999999999995 -31.319999999999997 -270.17999999999995 -25.919999999999998Q-270.17999999999995 -20.52 -268.542 -16.56Q-266.904 -12.6 -263.628 -10.404Q-260.352 -8.208 -255.41999999999996 -8.136ZM-208.61999999999998 1.152Q-213.19199999999998 1.152 -216.07199999999997 -0.396Q-218.95199999999997 -1.944 -220.55399999999997 -4.32Q-222.15599999999998 -6.696 -222.83999999999997 -9.27Q-223.52399999999997 -11.844 -223.66799999999998 -13.968Q-223.81199999999998 -16.092 -223.81199999999998 -17.064V-38.879999999999995H-213.87599999999998V-20.52Q-213.87599999999998 -19.188 -213.73199999999997 -17.118Q-213.58799999999997 -15.047999999999998 -212.83199999999997 -12.959999999999999Q-212.07599999999996 -10.872 -210.36599999999999 -9.468Q-208.65599999999998 -8.064 -205.52399999999997 -8.064Q-204.26399999999998 -8.064 -202.82399999999998 -8.46Q-201.384 -8.856 -200.12399999999997 -9.989999999999998Q-198.86399999999998 -11.123999999999999 -198.05399999999997 -13.338Q-197.24399999999997 -15.552 -197.24399999999997 -19.151999999999997L-191.628 -16.488Q-191.628 -11.879999999999999 -193.5 -7.847999999999999Q-195.37199999999999 -3.816 -199.134 -1.3319999999999999Q-202.896 1.152 -208.61999999999998 1.152ZM-196.01999999999998 0.0V-12.888H-197.24399999999997V-38.879999999999995H-187.38V0.0ZM-155.37599999999998 -44.279999999999994H-162.64799999999997L-156.67199999999997 -58.31999999999999H-149.39999999999998ZM-159.22799999999998 1.0799999999999998Q-165.20399999999998 1.0799999999999998 -169.75799999999998 -1.4939999999999998Q-174.31199999999998 -4.068 -176.88599999999997 -8.585999999999999Q-179.45999999999998 -13.104 -179.45999999999998 -18.936Q-179.45999999999998 -25.308 -176.94 -30.023999999999997Q-174.42 -34.739999999999995 -169.99199999999996 -37.349999999999994Q-165.56399999999996 -39.959999999999994 -159.80399999999997 -39.959999999999994Q-153.68399999999997 -39.959999999999994 -149.39999999999998 -37.08Q-145.11599999999999 -34.199999999999996 -143.06399999999996 -28.979999999999997Q-141.01199999999997 -23.759999999999998 -141.62399999999997 -16.703999999999997H-151.308V-20.304Q-151.308 -26.244 -153.19799999999998 -28.854Q-155.08799999999997 -31.464 -159.37199999999999 -31.464Q-164.37599999999998 -31.464 -166.73399999999998 -28.421999999999997Q-169.09199999999998 -25.38 -169.09199999999998 -19.439999999999998Q-169.09199999999998 -14.004 -166.73399999999998 -11.033999999999999Q-164.37599999999998 -8.064 -159.80399999999997 -8.064Q-156.92399999999998 -8.064 -154.87199999999999 -9.324Q-152.82 -10.584 -151.73999999999998 -12.959999999999999L-141.94799999999998 -10.152Q-144.14399999999998 -4.824 -148.878 -1.8719999999999999Q-153.61199999999997 1.0799999999999998 -159.22799999999998 1.0799999999999998ZM-172.11599999999999 -16.703999999999997V-23.976H-146.33999999999997V-16.703999999999997ZM-110.19599999999997 0.0Q-114.22799999999997 0.7559999999999999 -118.09799999999996 0.6659999999999999Q-121.96799999999996 0.576 -125.00999999999996 -0.702Q-128.05199999999996 -1.9799999999999998 -129.63599999999997 -4.824Q-131.07599999999996 -7.4879999999999995 -131.14799999999997 -10.241999999999999Q-131.21999999999997 -12.995999999999999 -131.21999999999997 -16.488V-49.68H-121.42799999999997V-17.064Q-121.42799999999997 -14.796 -121.37399999999997 -12.977999999999998Q-121.31999999999996 -11.159999999999998 -120.63599999999997 -10.08Q-119.33999999999996 -8.027999999999999 -116.49599999999995 -7.847999999999999Q-113.65199999999996 -7.667999999999999 -110.19599999999997 -8.136ZM-137.84399999999997 -31.319999999999997V-38.879999999999995H-110.19599999999997V-31.319999999999997ZM-87.15599999999996 0.0V-51.839999999999996H-70.37999999999997Q-69.76799999999997 -51.839999999999996 -67.85999999999997 -51.803999999999995Q-65.95199999999997 -51.767999999999994 -64.18799999999997 -51.552Q-57.92399999999997 -50.796 -53.56799999999997 -47.196Q-49.211999999999975 -43.596 -46.943999999999974 -38.05199999999999Q-44.67599999999997 -32.507999999999996 -44.67599999999997 -25.919999999999998Q-44.67599999999997 -19.331999999999997 -46.943999999999974 -13.787999999999998Q-49.211999999999975 -8.244 -53.56799999999997 -4.644Q-57.92399999999997 -1.0439999999999998 -64.18799999999997 -0.288Q-65.95199999999997 -0.072 -67.85999999999997 -0.036Q-69.76799999999997 0.0 -70.37999999999997 0.0ZM-77.21999999999997 -9.216H-70.37999999999997Q-69.40799999999997 -9.216 -67.75199999999998 -9.27Q-66.09599999999998 -9.324 -64.76399999999997 -9.575999999999999Q-61.37999999999997 -10.26 -59.23799999999997 -12.744Q-57.095999999999975 -15.227999999999998 -56.06999999999998 -18.72Q-55.043999999999976 -22.212 -55.043999999999976 -25.919999999999998Q-55.043999999999976 -29.807999999999996 -56.10599999999997 -33.3Q-57.16799999999997 -36.791999999999994 -59.327999999999975 -39.20399999999999Q-61.48799999999997 -41.616 -64.76399999999997 -42.263999999999996Q-66.09599999999998 -42.552 -67.75199999999998 -42.587999999999994Q-69.40799999999997 -42.623999999999995 -70.37999999999997 -42.623999999999995H-77.21999999999997ZM-36.03599999999997 0.0V-38.879999999999995H-27.395999999999972V-29.375999999999998L-28.331999999999972 -30.599999999999998Q-27.575999999999972 -32.616 -26.315999999999974 -34.272Q-25.055999999999973 -35.928 -23.219999999999974 -37.007999999999996Q-21.815999999999974 -37.872 -20.159999999999975 -38.358Q-18.503999999999973 -38.843999999999994 -16.739999999999974 -38.97Q-14.975999999999974 -39.096 -13.211999999999975 -38.879999999999995V-29.735999999999997Q-14.831999999999972 -30.24 -16.973999999999975 -30.077999999999996Q-19.115999999999975 -29.915999999999997 -20.843999999999973 -29.087999999999997Q-22.571999999999974 -28.296 -23.759999999999973 -26.982Q-24.947999999999972 -25.668 -25.559999999999974 -23.886Q-26.171999999999976 -22.104 -26.171999999999976 -19.872V0.0ZM-5.651999999999974 -44.279999999999994V-52.919999999999995H4.140000000000025V-44.279999999999994ZM-5.651999999999974 0.0V-38.879999999999995H4.140000000000025V0.0ZM25.452000000000023 0.0 11.340000000000023 -38.879999999999995H21.132000000000023L30.34800000000002 -11.952L39.56400000000002 -38.879999999999995H49.35600000000002L35.24400000000002 0.0ZM73.90800000000002 1.0799999999999998Q67.93200000000002 1.0799999999999998 63.378000000000014 -1.4939999999999998Q58.82400000000002 -4.068 56.25000000000002 -8.585999999999999Q53.67600000000002 -13.104 53.67600000000002 -18.936Q53.67600000000002 -25.308 56.196000000000026 -30.023999999999997Q58.71600000000002 -34.739999999999995 63.14400000000002 -37.349999999999994Q67.57200000000002 -39.959999999999994 73.33200000000002 -39.959999999999994Q79.45200000000003 -39.959999999999994 83.73600000000002 -37.08Q88.02000000000001 -34.199999999999996 90.07200000000002 -28.979999999999997Q92.12400000000002 -23.759999999999998 91.51200000000001 -16.703999999999997H81.82800000000002V-20.304Q81.82800000000002 -26.244 79.93800000000002 -28.854Q78.04800000000002 -31.464 73.76400000000002 -31.464Q68.76000000000002 -31.464 66.40200000000002 -28.421999999999997Q64.04400000000003 -25.38 64.04400000000003 -19.439999999999998Q64.04400000000003 -14.004 66.40200000000002 -11.033999999999999Q68.76000000000002 -8.064 73.33200000000002 -8.064Q76.21200000000002 -8.064 78.26400000000001 -9.324Q80.31600000000002 -10.584 81.39600000000002 -12.959999999999999L91.18800000000002 -10.152Q88.99200000000002 -4.824 84.25800000000001 -1.8719999999999999Q79.52400000000002 1.0799999999999998 73.90800000000002 1.0799999999999998ZM61.02000000000002 -16.703999999999997V-23.976H86.79600000000002V-16.703999999999997ZM140.508 0.0V-18.36Q140.508 -19.692 140.364 -21.762Q140.22 -23.831999999999997 139.464 -25.919999999999998Q138.708 -28.008 136.998 -29.412Q135.288 -30.816 132.156 -30.816Q130.89600000000002 -30.816 129.45600000000002 -30.419999999999998Q128.01600000000002 -30.023999999999997 126.75600000000001 -28.889999999999997Q125.49600000000001 -27.755999999999997 124.686 -25.559999999999995Q123.876 -23.363999999999997 123.876 -19.727999999999998L118.26 -22.392Q118.26 -26.999999999999996 120.132 -31.031999999999996Q122.004 -35.064 125.76600000000002 -37.548Q129.52800000000002 -40.032 135.252 -40.032Q139.824 -40.032 142.704 -38.483999999999995Q145.584 -36.936 147.186 -34.56Q148.788 -32.184 149.472 -29.61Q150.156 -27.035999999999998 150.3 -24.912Q150.44400000000002 -22.787999999999997 150.44400000000002 -21.816V0.0ZM113.94000000000001 0.0V-38.879999999999995H122.65200000000002V-25.991999999999997H123.876V0.0ZM176.436 18.36Q173.12400000000002 18.36 170.13600000000002 17.298Q167.148 16.235999999999997 164.79000000000002 14.345999999999998Q162.43200000000002 12.456 160.95600000000002 9.936L170.02800000000002 5.544Q170.964 7.271999999999999 172.71 8.171999999999999Q174.45600000000002 9.072 176.508 9.072Q178.704 9.072 180.64800000000002 8.334Q182.592 7.595999999999999 183.762 6.138Q184.93200000000002 4.68 184.86 2.52V-8.783999999999999H186.084V-38.879999999999995H194.65200000000002V2.6639999999999997Q194.65200000000002 4.104 194.526 5.382Q194.4 6.659999999999999 194.07600000000002 7.919999999999999Q193.14000000000001 11.484 190.60200000000003 13.788Q188.06400000000002 16.092 184.392 17.226Q180.72 18.36 176.436 18.36ZM175.572 1.0799999999999998Q170.208 1.0799999999999998 166.176 -1.6199999999999997Q162.144 -4.319999999999999 159.894 -8.963999999999999Q157.644 -13.607999999999999 157.644 -19.439999999999998Q157.644 -25.38 159.93 -30.006Q162.216 -34.632 166.356 -37.29599999999999Q170.496 -39.959999999999994 176.07600000000002 -39.959999999999994Q181.62 -39.959999999999994 185.4 -37.25999999999999Q189.18 -34.559999999999995 191.12400000000002 -29.915999999999997Q193.068 -25.272 193.068 -19.439999999999998Q193.068 -13.607999999999999 191.106 -8.963999999999999Q189.144 -4.319999999999999 185.256 -1.6199999999999997Q181.368 1.0799999999999998 175.572 1.0799999999999998ZM177.156 -7.632Q180.43200000000002 -7.632 182.394 -9.108Q184.356 -10.584 185.22 -13.248Q186.084 -15.911999999999999 186.084 -19.439999999999998Q186.084 -22.968 185.22 -25.631999999999998Q184.356 -28.296 182.466 -29.772Q180.57600000000002 -31.247999999999998 177.51600000000002 -31.247999999999998Q174.24 -31.247999999999998 172.13400000000001 -29.645999999999997Q170.02800000000002 -28.043999999999997 169.02 -25.362Q168.012 -22.68 168.012 -19.439999999999998Q168.012 -16.163999999999998 168.984 -13.482Q169.95600000000002 -10.799999999999999 171.972 -9.216Q173.988 -7.632 177.156 -7.632ZM215.532 1.0799999999999998Q211.356 1.0799999999999998 208.458 -0.5219999999999999Q205.56 -2.1239999999999997 204.066 -4.805999999999999Q202.572 -7.4879999999999995 202.572 -10.728Q202.572 -13.427999999999999 203.4 -15.66Q204.228 -17.892 206.082 -19.601999999999997Q207.936 -21.311999999999998 211.068 -22.464Q213.228 -23.255999999999997 216.216 -23.867999999999995Q219.204 -24.479999999999997 222.984 -25.037999999999997Q226.764 -25.595999999999997 231.3 -26.279999999999998L227.772 -24.336Q227.772 -27.791999999999998 226.11599999999999 -29.412Q224.46 -31.031999999999996 220.572 -31.031999999999996Q218.412 -31.031999999999996 216.072 -29.988Q213.732 -28.944 212.796 -26.279999999999998L203.94 -29.087999999999997Q205.416 -33.912 209.484 -36.93599999999999Q213.55200000000002 -39.959999999999994 220.572 -39.959999999999994Q225.72 -39.959999999999994 229.716 -38.37599999999999Q233.712 -36.791999999999994 235.764 -32.903999999999996Q236.916 -30.743999999999996 237.132 -28.583999999999996Q237.348 -26.424 237.348 -23.759999999999998V0.0H228.78V-7.991999999999999L230.00400000000002 -6.335999999999999Q227.16 -2.412 223.86599999999999 -0.666Q220.572 1.0799999999999998 215.532 1.0799999999999998ZM217.62 -6.624Q220.32 -6.624 222.174 -7.577999999999999Q224.02800000000002 -8.532 225.126 -9.756Q226.224 -10.979999999999999 226.62 -11.808Q227.376 -13.392 227.502 -15.498Q227.62800000000001 -17.604 227.62800000000001 -19.008L230.508 -18.288Q226.15200000000002 -17.567999999999998 223.452 -17.082Q220.752 -16.596 219.096 -16.2Q217.44 -15.803999999999998 216.18 -15.335999999999999Q214.74 -14.759999999999998 213.858 -14.093999999999998Q212.976 -13.427999999999999 212.562 -12.636Q212.148 -11.844 212.148 -10.872Q212.148 -9.54 212.81400000000002 -8.585999999999999Q213.48000000000002 -7.632 214.704 -7.128Q215.928 -6.624 217.62 -6.624ZM251.67600000000002 17.279999999999998 259.164 -3.312 259.308 2.7359999999999998 242.388 -38.879999999999995H252.54000000000002L263.916 -9.431999999999999H261.612L272.916 -38.879999999999995H282.708L260.748 17.279999999999998Z" transform="translate(420,520)" fill="#FFFFFF"/><path d="M-192.86999999999998 0.0V-28.8H-188.69V-15.36L-176.63 -28.8H-171.42999999999998L-184.17 -14.74L-170.48999999999998 0.0H-175.85L-188.69 -13.76V0.0ZM-165.10999999999999 -24.8 -159.92999999999998 -30.8H-156.32999999999998L-151.14999999999998 -24.8H-155.14999999999998L-158.13 -28.34L-161.10999999999999 -24.8ZM-148.70999999999998 -29.0H-151.98999999999998L-149.13 -36.0H-145.84999999999997ZM-158.10999999999999 0.6Q-161.32999999999998 0.6 -163.76 -0.81Q-166.18999999999997 -2.22 -167.53999999999996 -4.75Q-168.89 -7.28 -168.89 -10.620000000000001Q-168.89 -14.16 -167.56 -16.759999999999998Q-166.23 -19.36 -163.84999999999997 -20.78Q-161.46999999999997 -22.2 -158.30999999999997 -22.2Q-155.01 -22.2 -152.69 -20.67Q-150.36999999999998 -19.14 -149.21999999999997 -16.32Q-148.07 -13.5 -148.30999999999997 -9.620000000000001H-152.48999999999998V-11.14Q-152.52999999999997 -14.9 -153.91999999999996 -16.7Q-155.30999999999997 -18.5 -158.14999999999998 -18.5Q-161.29 -18.5 -162.87 -16.52Q-164.45 -14.540000000000001 -164.45 -10.8Q-164.45 -7.24 -162.87 -5.29Q-161.29 -3.34 -158.30999999999997 -3.34Q-156.34999999999997 -3.34 -154.91999999999996 -4.23Q-153.48999999999998 -5.12 -152.68999999999997 -6.78L-148.58999999999997 -5.48Q-149.84999999999997 -2.58 -152.40999999999997 -0.99Q-154.96999999999997 0.6 -158.10999999999999 0.6ZM-165.80999999999997 -9.620000000000001V-12.88H-150.39V-9.620000000000001ZM-131.47 0.0Q-133.51 0.4 -135.47 0.34Q-137.43 0.28 -138.97 -0.42000000000000004Q-140.51 -1.12 -141.29 -2.62Q-141.99 -3.96 -142.04000000000002 -5.35Q-142.09 -6.74 -142.09 -8.5V-27.6H-137.89V-8.700000000000001Q-137.89 -7.4 -137.85999999999999 -6.44Q-137.82999999999998 -5.48 -137.45 -4.82Q-136.73 -3.58 -135.16 -3.41Q-133.59 -3.24 -131.47 -3.54ZM-146.23 -18.240000000000002V-21.6H-131.47V-18.240000000000002ZM-103.76999999999998 0.0V-10.620000000000001Q-103.76999999999998 -11.88 -103.97999999999999 -13.21Q-104.19 -14.540000000000001 -104.78 -15.68Q-105.36999999999999 -16.82 -106.44 -17.52Q-107.50999999999999 -18.22 -109.22999999999999 -18.22Q-110.35 -18.22 -111.35 -17.85Q-112.35 -17.48 -113.1 -16.66Q-113.85 -15.84 -114.28 -14.5Q-114.71 -13.16 -114.71 -11.24L-117.30999999999999 -12.22Q-117.30999999999999 -15.16 -116.20999999999998 -17.41Q-115.10999999999999 -19.66 -113.04999999999998 -20.92Q-110.99 -22.18 -108.07 -22.18Q-105.82999999999998 -22.18 -104.30999999999999 -21.46Q-102.78999999999999 -20.740000000000002 -101.83999999999999 -19.57Q-100.88999999999999 -18.400000000000002 -100.38999999999999 -17.020000000000003Q-99.88999999999999 -15.64 -99.70999999999998 -14.32Q-99.52999999999999 -13.0 -99.52999999999999 -12.0V0.0ZM-118.94999999999999 0.0V-21.6H-115.21V-15.36H-114.71V0.0ZM-91.71 -24.8 -86.53 -30.8H-82.92999999999999L-77.75 -24.8H-81.75L-84.72999999999999 -28.34L-87.71 -24.8ZM-75.31 -29.0H-78.59L-75.72999999999999 -36.0H-72.44999999999999ZM-84.94999999999999 0.6Q-88.19 0.6 -90.57 -0.8599999999999999Q-92.94999999999999 -2.32 -94.24 -4.89Q-95.53 -7.46 -95.53 -10.82Q-95.53 -14.200000000000001 -94.21000000000001 -16.77Q-92.89 -19.34 -90.50999999999999 -20.77Q-88.13 -22.2 -84.94999999999999 -22.2Q-81.71 -22.2 -79.32999999999998 -20.740000000000002Q-76.94999999999999 -19.28 -75.64999999999999 -16.72Q-74.35 -14.16 -74.35 -10.82Q-74.35 -7.44 -75.66 -4.87Q-76.97 -2.3000000000000003 -79.35 -0.8500000000000001Q-81.72999999999999 0.6 -84.94999999999999 0.6ZM-84.94999999999999 -3.34Q-81.85 -3.34 -80.32 -5.43Q-78.78999999999999 -7.5200000000000005 -78.78999999999999 -10.82Q-78.78999999999999 -14.200000000000001 -80.34 -16.23Q-81.89 -18.26 -84.94999999999999 -18.26Q-87.05 -18.26 -88.41 -17.310000000000002Q-89.77 -16.36 -90.42999999999999 -14.69Q-91.08999999999999 -13.02 -91.08999999999999 -10.82Q-91.08999999999999 -7.42 -89.53 -5.38Q-87.97 -3.34 -84.94999999999999 -3.34ZM-69.55 -25.14V-29.2H-65.37V-25.14ZM-69.55 0.0V-21.6H-65.37V0.0ZM-39.010000000000005 0.0Q-41.05 0.4 -43.01 0.34Q-44.97 0.28 -46.510000000000005 -0.42000000000000004Q-48.050000000000004 -1.12 -48.83 -2.62Q-49.53 -3.96 -49.58 -5.35Q-49.63 -6.74 -49.63 -8.5V-27.6H-45.43V-8.700000000000001Q-45.43 -7.4 -45.400000000000006 -6.44Q-45.370000000000005 -5.48 -44.99 -4.82Q-44.27 -3.58 -42.7 -3.41Q-41.13 -3.24 -39.010000000000005 -3.54ZM-53.77 -18.240000000000002V-21.6H-39.010000000000005V-18.240000000000002ZM-34.470000000000006 0.0V-21.6H-30.750000000000004V-16.36L-31.270000000000003 -17.04Q-30.870000000000005 -18.080000000000002 -30.230000000000004 -18.950000000000003Q-29.590000000000003 -19.82 -28.750000000000004 -20.38Q-27.930000000000003 -20.98 -26.92 -21.310000000000002Q-25.910000000000004 -21.64 -24.85 -21.71Q-23.790000000000003 -21.78 -22.810000000000002 -21.6V-17.68Q-23.870000000000005 -17.96 -25.160000000000004 -17.84Q-26.450000000000003 -17.72 -27.53 -17.02Q-28.550000000000004 -16.36 -29.140000000000004 -15.42Q-29.730000000000004 -14.48 -29.990000000000002 -13.33Q-30.250000000000004 -12.18 -30.250000000000004 -10.9V0.0ZM-9.630000000000003 0.6Q-12.870000000000003 0.6 -15.250000000000004 -0.8599999999999999Q-17.630000000000003 -2.32 -18.92 -4.89Q-20.21 -7.46 -20.21 -10.82Q-20.21 -14.200000000000001 -18.89 -16.77Q-17.57 -19.34 -15.190000000000001 -20.77Q-12.810000000000002 -22.2 -9.630000000000003 -22.2Q-6.390000000000002 -22.2 -4.0100000000000025 -20.740000000000002Q-1.6300000000000026 -19.28 -0.33000000000000185 -16.72Q0.9699999999999989 -14.16 0.9699999999999989 -10.82Q0.9699999999999989 -7.44 -0.34000000000000163 -4.87Q-1.6500000000000021 -2.3000000000000003 -4.030000000000002 -0.8500000000000001Q-6.410000000000002 0.6 -9.630000000000003 0.6ZM-9.630000000000003 -3.34Q-6.530000000000001 -3.34 -5.000000000000002 -5.43Q-3.4700000000000024 -7.5200000000000005 -3.4700000000000024 -10.82Q-3.4700000000000024 -14.200000000000001 -5.020000000000002 -16.23Q-6.570000000000002 -18.26 -9.630000000000003 -18.26Q-11.730000000000002 -18.26 -13.090000000000003 -17.310000000000002Q-14.450000000000003 -16.36 -15.110000000000003 -14.69Q-15.770000000000003 -13.02 -15.770000000000003 -10.82Q-15.770000000000003 -7.42 -14.210000000000003 -5.38Q-12.650000000000002 -3.34 -9.630000000000003 -3.34ZM20.529999999999998 0.0V-10.620000000000001Q20.529999999999998 -11.88 20.319999999999997 -13.21Q20.109999999999996 -14.540000000000001 19.519999999999996 -15.68Q18.929999999999996 -16.82 17.86 -17.52Q16.79 -18.22 15.069999999999997 -18.22Q13.949999999999998 -18.22 12.949999999999998 -17.85Q11.949999999999998 -17.48 11.199999999999996 -16.66Q10.449999999999996 -15.84 10.019999999999996 -14.5Q9.589999999999996 -13.16 9.589999999999996 -11.24L6.989999999999997 -12.22Q6.989999999999997 -15.16 8.089999999999996 -17.41Q9.189999999999998 -19.66 11.249999999999996 -20.92Q13.309999999999997 -22.18 16.229999999999997 -22.18Q18.47 -22.18 19.99 -21.46Q21.509999999999998 -20.740000000000002 22.459999999999997 -19.57Q23.409999999999997 -18.400000000000002 23.909999999999997 -17.020000000000003Q24.409999999999997 -15.64 24.589999999999996 -14.32Q24.769999999999996 -13.0 24.769999999999996 -12.0V0.0ZM5.349999999999997 0.0V-21.6H9.089999999999996V-15.36H9.589999999999996V0.0ZM38.87 10.200000000000001Q37.129999999999995 10.200000000000001 35.5 9.66Q33.87 9.120000000000001 32.53 8.07Q31.189999999999998 7.0200000000000005 30.31 5.48L34.17 3.52Q34.87 4.9 36.17 5.54Q37.47 6.18 38.91 6.18Q40.69 6.18 41.949999999999996 5.55Q43.209999999999994 4.92 43.86 3.66Q44.51 2.4 44.489999999999995 0.54V-5.5H44.989999999999995V-21.6H48.69V0.58Q48.69 1.44 48.629999999999995 2.2199999999999998Q48.57 3.0 48.41 3.7800000000000002Q47.95 5.96 46.66 7.380000000000001Q45.37 8.8 43.379999999999995 9.5Q41.39 10.200000000000001 38.87 10.200000000000001ZM38.55 0.6Q35.53 0.6 33.34 -0.8999999999999999Q31.15 -2.4 29.96 -4.99Q28.77 -7.58 28.77 -10.82Q28.77 -14.08 29.97 -16.65Q31.169999999999998 -19.22 33.379999999999995 -20.71Q35.589999999999996 -22.2 38.629999999999995 -22.2Q41.69 -22.2 43.78 -20.71Q45.87 -19.22 46.94 -16.64Q48.01 -14.06 48.01 -10.82Q48.01 -7.58 46.92999999999999 -5.0Q45.849999999999994 -2.42 43.75 -0.9099999999999999Q41.65 0.6 38.55 0.6ZM39.129999999999995 -3.18Q41.19 -3.18 42.489999999999995 -4.16Q43.79 -5.14 44.39 -6.859999999999999Q44.989999999999995 -8.58 44.989999999999995 -10.82Q44.989999999999995 -13.06 44.379999999999995 -14.780000000000001Q43.769999999999996 -16.5 42.5 -17.46Q41.23 -18.42 39.269999999999996 -18.42Q37.19 -18.42 35.849999999999994 -17.4Q34.51 -16.38 33.86 -14.66Q33.21 -12.94 33.21 -10.82Q33.21 -8.68 33.86 -6.949999999999999Q34.51 -5.22 35.81999999999999 -4.2Q37.129999999999995 -3.18 39.129999999999995 -3.18ZM70.35 0.54Q68.21 0.54 66.32999999999998 -0.27Q64.44999999999999 -1.08 63.07999999999999 -2.58Q61.709999999999994 -4.08 61.089999999999996 -6.12L65.13 -7.24Q65.71 -5.38 67.14999999999999 -4.39Q68.58999999999999 -3.4 70.35 -3.42Q71.92999999999999 -3.44 73.13 -4.16Q74.33 -4.88 75.00999999999999 -6.109999999999999Q75.69 -7.34 75.69 -8.94Q75.69 -11.34 74.19999999999999 -12.9Q72.71 -14.46 70.31 -14.46Q69.63 -14.46 68.91999999999999 -14.260000000000002Q68.21 -14.06 67.58999999999999 -13.74L65.63 -17.04L75.78999999999999 -26.02L76.22999999999999 -24.82H62.23V-28.8H79.55V-24.82L71.11 -16.7L71.07 -18.06Q73.78999999999999 -18.06 75.78999999999999 -16.85Q77.78999999999999 -15.64 78.88 -13.57Q79.97 -11.5 79.97 -8.94Q79.97 -6.18 78.68 -4.04Q77.39 -1.9000000000000001 75.22 -0.68Q73.05 0.54 70.35 0.54ZM95.21 0.6Q92.27 0.6 90.00999999999999 -0.69Q87.74999999999999 -1.98 86.45999999999998 -4.24Q85.16999999999999 -6.5 85.16999999999999 -9.44V-19.36Q85.16999999999999 -22.3 86.45999999999998 -24.560000000000002Q87.74999999999999 -26.82 90.00999999999999 -28.11Q92.27 -29.400000000000002 95.21 -29.400000000000002Q98.14999999999999 -29.400000000000002 100.41 -28.11Q102.66999999999999 -26.82 103.95999999999998 -24.560000000000002Q105.24999999999999 -22.3 105.24999999999999 -19.36V-9.44Q105.24999999999999 -6.5 103.95999999999998 -4.24Q102.66999999999999 -1.98 100.41 -0.69Q98.14999999999999 0.6 95.21 0.6ZM95.21 -3.4Q96.80999999999999 -3.4 98.11999999999999 -4.17Q99.42999999999999 -4.94 100.21 -6.25Q100.99 -7.5600000000000005 100.99 -9.18V-19.66Q100.99 -21.26 100.21 -22.57Q99.42999999999999 -23.88 98.11999999999999 -24.65Q96.80999999999999 -25.42 95.21 -25.42Q93.60999999999999 -25.42 92.29999999999998 -24.65Q90.99 -23.88 90.21 -22.57Q89.42999999999999 -21.26 89.42999999999999 -19.66V-9.18Q89.42999999999999 -7.5600000000000005 90.21 -6.25Q90.99 -4.94 92.29999999999998 -4.17Q93.60999999999999 -3.4 95.21 -3.4ZM127.74999999999999 10.200000000000001Q126.00999999999999 10.200000000000001 124.38 9.66Q122.74999999999999 9.120000000000001 121.40999999999998 8.07Q120.06999999999998 7.0200000000000005 119.18999999999998 5.48L123.04999999999998 3.52Q123.74999999999999 4.9 125.04999999999998 5.54Q126.34999999999998 6.18 127.78999999999998 6.18Q129.57 6.18 130.82999999999998 5.55Q132.08999999999997 4.92 132.73999999999998 3.66Q133.39 2.4 133.36999999999998 0.54V-5.5H133.86999999999998V-21.6H137.57V0.58Q137.57 1.44 137.51 2.2199999999999998Q137.45 3.0 137.29 3.7800000000000002Q136.82999999999998 5.96 135.53999999999996 7.380000000000001Q134.24999999999997 8.8 132.26 9.5Q130.26999999999998 10.200000000000001 127.74999999999999 10.200000000000001ZM127.42999999999998 0.6Q124.40999999999998 0.6 122.21999999999998 -0.8999999999999999Q120.02999999999999 -2.4 118.83999999999997 -4.99Q117.64999999999998 -7.58 117.64999999999998 -10.82Q117.64999999999998 -14.08 118.84999999999998 -16.65Q120.04999999999998 -19.22 122.25999999999999 -20.71Q124.46999999999998 -22.2 127.50999999999999 -22.2Q130.57 -22.2 132.65999999999997 -20.71Q134.74999999999997 -19.22 135.82 -16.64Q136.89 -14.06 136.89 -10.82Q136.89 -7.58 135.81 -5.0Q134.73 -2.42 132.63 -0.9099999999999999Q130.52999999999997 0.6 127.42999999999998 0.6ZM128.01 -3.18Q130.07 -3.18 131.37 -4.16Q132.67 -5.14 133.26999999999998 -6.859999999999999Q133.86999999999998 -8.58 133.86999999999998 -10.82Q133.86999999999998 -13.06 133.26 -14.780000000000001Q132.64999999999998 -16.5 131.38 -17.46Q130.10999999999999 -18.42 128.14999999999998 -18.42Q126.06999999999998 -18.42 124.72999999999999 -17.4Q123.38999999999999 -16.38 122.73999999999998 -14.66Q122.08999999999999 -12.94 122.08999999999999 -10.82Q122.08999999999999 -8.68 122.73999999999998 -6.949999999999999Q123.38999999999999 -5.22 124.69999999999999 -4.2Q126.00999999999999 -3.18 128.01 -3.18ZM143.56999999999996 -25.14V-29.2H147.74999999999997V-25.14ZM143.56999999999996 0.0V-21.6H147.74999999999997V0.0ZM155.64999999999998 -24.8 160.81 -30.8H164.41L169.58999999999997 -24.8H165.58999999999997L162.60999999999999 -28.34L159.64999999999998 -24.8ZM159.85 0.6Q157.45 0.6 155.82999999999998 -0.29Q154.20999999999998 -1.18 153.38 -2.65Q152.54999999999998 -4.12 152.54999999999998 -5.88Q152.54999999999998 -7.5200000000000005 153.13 -8.76Q153.70999999999998 -10.0 154.84999999999997 -10.870000000000001Q155.98999999999998 -11.74 157.64999999999998 -12.280000000000001Q159.08999999999997 -12.700000000000001 160.90999999999997 -13.02Q162.73 -13.34 164.74 -13.620000000000001Q166.75 -13.9 168.73 -14.18L167.20999999999998 -13.34Q167.25 -15.88 166.14 -17.11Q165.03 -18.34 162.32999999999998 -18.34Q160.63 -18.34 159.20999999999998 -17.55Q157.79 -16.76 157.23 -14.94L153.32999999999998 -16.14Q154.13 -18.92 156.38 -20.560000000000002Q158.63 -22.2 162.36999999999998 -22.2Q165.26999999999998 -22.2 167.42 -21.21Q169.57 -20.22 170.57 -18.080000000000002Q171.08999999999997 -17.02 171.20999999999998 -15.84Q171.32999999999998 -14.66 171.32999999999998 -13.3V0.0H167.63V-4.94L168.35 -4.3Q167.01 -1.82 164.94 -0.6100000000000001Q162.86999999999998 0.6 159.85 0.6ZM160.58999999999997 -2.82Q162.36999999999998 -2.82 163.64999999999998 -3.45Q164.92999999999998 -4.08 165.70999999999998 -5.0600000000000005Q166.48999999999998 -6.04 166.73 -7.1000000000000005Q167.07 -8.06 167.12 -9.260000000000002Q167.17 -10.46 167.17 -11.18L168.53 -10.68Q166.54999999999998 -10.38 164.93 -10.14Q163.31 -9.9 162.0 -9.67Q160.69 -9.44 159.67 -9.120000000000001Q158.81 -8.82 158.14 -8.4Q157.47 -7.98 157.07999999999998 -7.380000000000001Q156.69 -6.78 156.69 -5.92Q156.69 -5.08 157.11 -4.37Q157.53 -3.66 158.39 -3.24Q159.25 -2.82 160.58999999999997 -2.82ZM179.45 9.6 183.63 -1.78 183.69 1.58 174.26999999999998 -21.6H178.63L185.67 -3.7H184.39L191.10999999999999 -21.6H195.35L183.42999999999998 9.6Z" transform="translate(420,590)" fill="#CCDBF5"/></svg>