<svg xmlns="http://www.w3.org/2000/svg" viewBox="0 0 564 564" font-family="Manrope, -apple-system, sans-serif"><defs><linearGradient id="bg" x1="0" y1="0" x2="1" y2="1"><stop offset="0" stop-color="#F0F4FC"/><stop offset="1" stop-color="#CCDBF5"/></linearGradient><linearGradient id="bluev" x1="0" y1="0" x2="0" y2="1"><stop offset="0" stop-color="#058EF4"/><stop offset="1" stop-color="#0052CD"/></linearGradient><filter id="soft" x="-40%" y="-40%" width="180%" height="180%"><feDropShadow dx="0" dy="8" stdDeviation="14" flood-color="#0052CD" flood-opacity="0.18"/></filter></defs><rect width="564" height="564" fill="url(#bg)"/><circle cx="60" cy="60" r="100" fill="#AFC2E6" fill-opacity="0.35"/><g filter="url(#soft)"><path d="M120 190 h96 a14 14 0 0 1 11 6 l12 16 a14 14 0 0 0 11 6 h174 a18 18 0 0 1 18 18 v148 a18 18 0 0 1 -18 18 h-286 a18 18 0 0 1 -18 -18 v-176 a18 18 0 0 1 18 -18 z" fill="url(#bluev)"/></g><g filter="url(#soft)"><circle cx="180" cy="420" r="46" fill="#FFFFFF"/><circle cx="180" cy="408" r="15" fill="#0052CD"/><path d="M154 444 a26 19 0 0 1 52 0" fill="#99B7EB"/></g><g filter="url(#soft)"><circle cx="282" cy="440" r="46" fill="#FFFFFF"/><circle cx="282" cy="428" r="15" fill="#058EF4"/><path d="M256 464 a26 19 0 0 1 52 0" fill="#CCDBF5"/></g><g filter="url(#soft)"><circle cx="384" cy="420" r="46" fill="#FFFFFF"/><circle cx="384" cy="408" r="15" fill="#021E6B"/><path d="M358 444 a26 19 0 0 1 52 0" fill="#99B7EB"/></g><g filter="url(#soft)"><rect x="330" y="120" width="180" height="70" rx="20" fill="#FFFFFF"/><circle cx="365" cy="155" r="17" fill="#F0F4FC"/><path d="M365 145 a10 10 0 0 1 10 10 v6 l5 6 h-30 l5 -6 v-6 a10 10 0 0 1 10 -10 z" fill="#0052CD"/><rect x="392" y="140" width="95" height="12" rx="6" fill="#041335"/><rect x="392" y="162" width="60" height="10" rx="5" fill="#99B7EB"/></g></svg>