<svg xmlns="http://www.w3.org/2000/svg" viewBox="0 0 1256 487">
  <defs>
    <linearGradient id="bg" x1="0" y1="0" x2="1" y2="0.4">
      <stop offset="0" stop-color="#021E6B"/>
      <stop offset="0.5" stop-color="#0052CD"/>
      <stop offset="1" stop-color="#058EF4"/>
    </linearGradient>
    <linearGradient id="w1" x1="0" y1="0" x2="1" y2="0">
      <stop offset="0" stop-color="#058EF4" stop-opacity="0"/>
      <stop offset="0.5" stop-color="#058EF4" stop-opacity="0.5"/>
      <stop offset="1" stop-color="#99B7EB" stop-opacity="0.15"/>
    </linearGradient>
    <radialGradient id="spot" cx="0.75" cy="0.2" r="0.6">
      <stop offset="0" stop-color="#99B7EB" stop-opacity="0.5"/>
      <stop offset="1" stop-color="#99B7EB" stop-opacity="0"/>
    </radialGradient>
  </defs>
  <rect width="1256" height="487" fill="url(#bg)"/>
  <rect width="1256" height="487" fill="url(#spot)"/>
  <path d="M0 360 C 260 300 420 430 640 380 C 880 325 1020 420 1256 350 V487 H0 z" fill="url(#w1)"/>
  <path d="M0 420 C 300 370 500 480 760 430 C 980 388 1120 460 1256 415 V487 H0 z" fill="#021E6B" fill-opacity="0.45"/>
  <path d="M0 300 C 300 250 560 360 840 300 C 1040 258 1160 320 1256 280" fill="none" stroke="#F0F4FC" stroke-opacity="0.35" stroke-width="2"/>
  <g fill="#F0F4FC">
    <circle cx="180" cy="120" r="3" opacity="0.7"/>
    <circle cx="420" cy="80" r="2.5" opacity="0.5"/>
    <circle cx="700" cy="140" r="3" opacity="0.6"/>
    <circle cx="980" cy="90" r="2.5" opacity="0.5"/>
    <circle cx="1140" cy="180" r="3" opacity="0.6"/>
    <circle cx="300" cy="200" r="2" opacity="0.4"/>
  </g>
</svg>
